<svg width="100" height="100" viewBox="0 0 100 100" fill="none" xmlns="http://www.w3.org/2000/svg">
<circle cx="50" cy="50" r="50" fill="url(#paint0_radial_305_31)"/>
<path d="M45.568 36.8C45.832 36.8 46.06 36.896 46.252 37.088C46.444 37.28 46.54 37.508 46.54 37.772V61.028C46.54 61.292 46.444 61.52 46.252 61.712C46.06 61.904 45.832 62 45.568 62H39.772C39.196 62 38.716 61.748 38.332 61.244L30.484 51.236V61.028C30.484 61.292 30.388 61.52 30.196 61.712C30.004 61.904 29.776 62 29.512 62H22.816C22.552 62 22.324 61.904 22.132 61.712C21.94 61.52 21.844 61.292 21.844 61.028V37.772C21.844 37.508 21.94 37.28 22.132 37.088C22.324 36.896 22.552 36.8 22.816 36.8H28.648C29.224 36.8 29.692 37.04 30.052 37.52L37.9 48.356V37.772C37.9 37.508 37.996 37.28 38.188 37.088C38.38 36.896 38.608 36.8 38.872 36.8H45.568ZM68.5579 36.8C70.8139 36.8 72.7819 37.184 74.4619 37.952C76.1419 38.72 77.4259 39.764 78.3139 41.084C79.2019 42.404 79.6459 43.88 79.6459 45.512C79.6459 48.2 78.8059 50.312 77.1259 51.848C75.4459 53.36 72.5899 54.116 68.5579 54.116H63.8059V61.028C63.8059 61.292 63.7099 61.52 63.5179 61.712C63.3259 61.904 63.0979 62 62.8339 62H55.0939C54.8299 62 54.6019 61.904 54.4099 61.712C54.2179 61.52 54.1219 61.292 54.1219 61.028V37.772C54.1219 37.508 54.2179 37.28 54.4099 37.088C54.6019 36.896 54.8299 36.8 55.0939 36.8H68.5579ZM68.4139 47.456C68.9899 47.456 69.4459 47.288 69.7819 46.952C70.1179 46.592 70.2859 46.124 70.2859 45.548C70.2859 44.948 70.1179 44.456 69.7819 44.072C69.4459 43.688 68.9899 43.496 68.4139 43.496H63.8419V47.456H68.4139Z" fill="url(#paint1_radial_305_31)"/>
<defs>
<radialGradient id="paint0_radial_305_31" cx="0" cy="0" r="1" gradientUnits="userSpaceOnUse" gradientTransform="translate(50 50) rotate(90) scale(74)">
<stop stop-color="#00FFFF"/>
<stop offset="1" stop-color="#FF00FF"/>
</radialGradient>
<radialGradient id="paint1_radial_305_31" cx="0" cy="0" r="1" gradientUnits="userSpaceOnUse" gradientTransform="translate(50 50.5) rotate(90) scale(22.5 31)">
<stop stop-color="#374151"/>
<stop offset="1" stop-color="#111827"/>
</radialGradient>
</defs>
</svg>
